<svg width="80" height="80" viewBox="0 0 80 80" fill="none" xmlns="http://www.w3.org/2000/svg">
<circle cx="40" cy="40" r="40" fill="white" fill-opacity="0.16"/>
<circle cx="40.0269" cy="39.9356" r="32.0879" fill="white" fill-opacity="0.24"/>
<circle cx="39.9781" cy="39.9777" r="24.8352" fill="#32CD32"/>
<path d="M40 48.8574C40.4521 48.8574 40.9042 48.6334 41.2056 48.2599C43.3155 45.4964 46.8571 40.567 46.8571 37.7288C46.8571 33.9197 43.7676 30.8574 40 30.8574C36.2323 30.8574 33.1428 33.9197 33.1428 37.7288C33.1428 40.567 36.6844 45.4964 38.8697 48.2599C39.0957 48.6334 39.5478 48.8574 40 48.8574ZM37.7394 37.1313C37.7394 35.8616 38.719 34.8906 40 34.8906C41.281 34.8906 42.2606 35.8616 42.2606 37.1313C42.2606 38.0275 41.7331 38.8491 40.9042 39.1479V41.3139C40.9042 41.8367 40.4521 42.2848 39.9246 42.2848C39.3971 42.2848 38.945 41.8367 38.945 41.3139V39.1479C38.2668 38.7744 37.7394 38.0275 37.7394 37.1313Z" fill="white"/>
</svg>
